<svg width="16" height="16" viewBox="0 0 16 16" fill="none" xmlns="http://www.w3.org/2000/svg">
<path fill-rule="evenodd" clip-rule="evenodd" d="M6.33462 4.80017C2.7233 5.11165 0 6.4136 0 7.96454C0 9.74671 3.59381 11.1999 7.99999 11.1999C12.4062 11.1999 16 9.74642 16 7.96454C16 6.4136 13.2767 5.11136 9.6654 4.80017V4.94934C11.5348 5.17353 12.8759 6.01834 12.8759 6.70785C12.8759 7.58885 10.6856 8.30755 8.00028 8.30755C5.31493 8.30755 3.12468 7.58885 3.12468 6.70785C3.12468 6.01863 4.46545 5.21265 6.33519 4.98846V4.80017H6.33462Z" fill="#FF6002"/>
<path fill-rule="evenodd" clip-rule="evenodd" d="M7.29853 5.18311C5.80188 5.29783 4.67331 5.77774 4.67331 6.34961C4.67331 7.00642 6.16267 7.54209 7.98862 7.54209C9.81456 7.54209 11.3039 7.00642 11.3039 6.34961C11.3039 5.77803 10.1754 5.29812 8.6787 5.18311V5.33228C9.45345 5.41489 10.0093 5.63237 10.0093 5.88633C10.0093 6.21095 9.10169 6.47601 7.98862 6.47601C6.87555 6.47601 5.96796 6.21124 5.96796 5.88633C5.96796 5.63237 6.52378 5.41489 7.29853 5.33228V5.18311Z" fill="#FF6002"/>
</svg>
